<svg xmlns="http://www.w3.org/2000/svg" width="400" height="390" viewBox="0 0 400 390">
  <g id="Group_3081" data-name="Group 3081" transform="translate(-602 -374)">
    <path id="Path_5436" data-name="Path 5436" d="M250.776,366.121c-48.273-.8-89.868-17.738-124.11-51.157-25.751-25.127-42-55.726-48.029-90.927C69.367,169.9,83.34,121.78,120.068,80.388,146.5,50.6,179.992,32.315,219.356,25.154a184.233,184.233,0,0,1,44.882-2.124c35.415,2.273,66.649,14.151,94.816,34.8,9.048,6.647,16.912,14.574,24.764,22.512,2.288,2.307,1.684,3.666-.36,5.562A170.45,170.45,0,0,0,370.716,98.48c-3.729,4.26-6.133,4.649-10.349.08-20.327-22.078-45.2-37.12-74.919-43.493-49.168-10.554-93.167.034-131.219,32.7-24.334,20.89-39.364,47.217-45.834,78.329C98.707,212.73,111.728,253.242,142.5,289c16.865,19.6,38.551,32.494,62.7,41.072a132.7,132.7,0,0,0,58.228,7.093c37.506-3.872,69.913-18.686,95.873-46.12,5.4-5.711,5.506-5.631,11.174-.057,4.123,4.043,8.177,8.166,12.405,12.1,2.2,2.033,2.1,3.541.058,5.7C356.22,336.95,324.22,355.67,285.355,362.74c-11.464,2.09-22.871,3.586-34.591,3.381Z" transform="translate(553.215 374.653)" fill="#325a9c" fill-rule="evenodd"/>
    <path id="Path_5437" data-name="Path 5437" d="M244.133,322.839c-38.047-.509-69.348-15.794-94.635-44.405-2.176-2.469-1.931-3.871.269-6.067q21.835-21.83,43.388-43.934c2.249-2.308,3.691-2.457,5.915-.037q6.93,7.482,14.324,14.492c2.762,2.618,2.652,4.442-.049,7.072-7.358,7.171-14.4,14.7-21.78,21.874-2.713,2.63-2.371,3.809.66,5.831A94.382,94.382,0,0,0,294.634,279.6c6.245-3.821,6.221-4.07,1.063-9.28Q223.96,197.961,152.223,125.628c-6.05-6.1-5.964-6.042-.171-12.444,19.568-21.675,43.462-35.857,72.11-40.087,44.562-6.563,82.817,6.712,114.044,40.1,3.862,4.144,3.936,6.749-.367,10.918-14.043,13.586-27.7,27.606-41.274,41.676-2.982,3.1-4.791,4.119-8.018.248A154.117,154.117,0,0,0,275.14,152.39c-2.53-2.357-2.616-3.834-.061-6.315,7.822-7.593,15.278-15.571,23.112-23.164,2.677-2.593,3.166-3.958-.342-6.266-31.826-20.956-72.33-21.762-105.146-.385-4.693,3.052-3.813,4.814-.513,8.151q71.737,72.377,143.291,144.928c7.077,7.159,7.089,7.2.1,14.454-19.9,20.658-43.828,33.388-72,37.8-1.992.31-3.96,1.092-5.952,1.179-4.485.174-8.983.062-13.481.062Z" transform="translate(560.284 371.041)" fill="#de5926" fill-rule="evenodd"/>
    <g id="Group_3072" data-name="Group 3072" transform="translate(602 374)">
      <path id="Path_5438" data-name="Path 5438" d="M50.974,196.87c-.19-1.406-.357-2.823-.524-4.239l4.217-.491c.156,1.395.335,2.789.513,4.173l-4.206.558Z" transform="translate(-42.529 24.522)" fill="#6d6e73"/>
      <path id="Path_5439" data-name="Path 5439" d="M244.31,389.98q-4.383-.034-8.72-.259l.227-4.284c2.82.147,5.673.237,8.527.259Zm8.732-.124-.148-4.284q4.281-.152,8.516-.485l.341,4.273c-2.876.225-5.787.395-8.7.485Zm-26.15-.778q-4.366-.423-8.664-1.026l.6-4.239c2.808.395,5.628.721,8.47,1Zm43.523-.586-.523-4.25q4.264-.524,8.436-1.229l.728,4.228c-2.854.474-5.73.9-8.641,1.251Zm-60.793-1.838c-2.865-.53-5.719-1.127-8.538-1.781l.978-4.171q4.144.964,8.357,1.736l-.8,4.216Zm78-1.048-.91-4.194c2.786-.6,5.56-1.251,8.3-1.962l1.091,4.137c-2.808.733-5.628,1.4-8.482,2.007Zm-94.993-2.886c-2.808-.778-5.594-1.635-8.345-2.525l1.353-4.07c2.695.879,5.423,1.7,8.163,2.469l-1.171,4.126Zm111.854-1.5-1.285-4.092q4.093-1.251,8.084-2.694l1.467,4.025q-4.093,1.471-8.277,2.751ZM176.058,377.3q-4.076-1.539-8.084-3.258l1.717-3.934q3.922,1.674,7.913,3.19l-1.535,4Zm144.814-1.95-1.649-3.968q3.94-1.607,7.8-3.382l1.819,3.889c-2.626,1.206-5.287,2.367-7.97,3.461Zm-160.834-4.915q-3.94-1.894-7.754-3.957l2.058-3.765c2.5,1.342,5.025,2.638,7.595,3.867l-1.887,3.856Zm176.615-2.356-1.99-3.81c2.524-1.3,5.014-2.661,7.47-4.059l2.16,3.709Q340.525,366.08,336.653,368.075Zm-191.941-5.9q-3.735-2.232-7.367-4.622l2.388-3.574q3.564,2.334,7.208,4.532l-2.228,3.664Zm207.017-2.751-2.319-3.608c2.4-1.522,4.764-3.089,7.072-4.7l2.49,3.506q-3.564,2.486-7.242,4.814Zm-221.547-6.821q-3.53-2.553-6.935-5.253l2.706-3.348q3.326,2.638,6.776,5.141Zm235.8-3.123-2.638-3.393q3.377-2.587,6.64-5.31l2.786,3.269Q369.449,346.841,365.987,349.485Zm13.325-11.15-2.933-3.145c2.092-1.917,4.139-3.867,6.14-5.874l3.058,3.021q-3.07,3.061-6.276,6.009Zm12.279-12.277-3.195-2.886q2.865-3.128,5.594-6.392l3.32,2.74q-2.8,3.331-5.73,6.527Zm11.154-13.3-3.445-2.593c1.717-2.255,3.388-4.532,5.014-6.854l3.547,2.435q-2.49,3.568-5.116,7.012Zm9.926-14.239-3.661-2.277q2.268-3.585,4.377-7.272l3.763,2.119C415.717,293.6,414.216,296.082,412.67,298.517Zm8.618-15.062-3.854-1.95c1.3-2.514,2.524-5.051,3.706-7.632l3.934,1.77C423.869,278.281,422.6,280.885,421.288,283.456Zm7.231-15.772-4-1.6q1.586-3.923,3.013-7.937l4.082,1.42q-1.45,4.109-3.081,8.117Zm5.787-16.369-4.139-1.24q1.228-4.042,2.274-8.151l4.184,1.048q-1.074,4.211-2.331,8.331Zm4.286-16.764-4.229-.868q.853-4.126,1.524-8.32l4.275.676c-.466,2.852-.989,5.693-1.569,8.5Zm2.751-17.068-4.3-.5q.495-4.177.784-8.421l4.309.3q-.307,4.329-.807,8.613Zm-391.533-9q-.29-4.3-.4-8.636l4.32-.1c.08,2.841.2,5.648.4,8.455l-4.309.293Zm392.773-8.252-4.32-.113c.045-1.7.068-3.416.068-5.13,0-1.116,0-2.221-.034-3.326l4.32-.079q.034,1.708.034,3.416,0,2.621-.068,5.242ZM53.71,191.282l-4.32-.079q.085-4.346.364-8.636l4.309.271Q53.79,187.032,53.71,191.282ZM437.967,183.2c-.17-2.818-.409-5.637-.7-8.421l4.3-.451q.46,4.278.716,8.624l-4.309.259ZM54.779,174.406l-4.3-.451q.477-4.312,1.126-8.579l4.275.643c-.421,2.773-.8,5.569-1.091,8.388Zm381.392-8.016c-.421-2.8-.91-5.58-1.455-8.331l4.241-.823q.836,4.228,1.489,8.523l-4.275.643Zm-378.822-8.7-4.241-.834c.568-2.841,1.194-5.648,1.887-8.444l4.2,1.026Q58.184,153.527,57.349,157.687ZM432.885,149.8c-.671-2.739-1.41-5.468-2.194-8.173l4.15-1.195q1.211,4.143,2.251,8.354l-4.207,1ZM61.408,141.272l-4.139-1.206c.819-2.773,1.694-5.524,2.649-8.241l4.082,1.4q-1.381,3.991-2.581,8.061Zm366.714-7.711c-.91-2.672-1.9-5.321-2.922-7.948l4.025-1.556c1.057,2.683,2.047,5.389,3,8.117l-4.093,1.387Zm-361.177-8.32-4.025-1.567q1.6-4.042,3.388-7.993l3.945,1.747q-1.74,3.856-3.3,7.813Zm354.98-7.418q-1.74-3.872-3.627-7.644l3.877-1.905q1.927,3.856,3.707,7.813l-3.957,1.747ZM73.891,109.763l-3.866-1.917c1.307-2.582,2.672-5.141,4.093-7.655l3.775,2.086c-1.376,2.458-2.717,4.96-3.991,7.486Zm340.45-7.057c-1.376-2.469-2.808-4.893-4.3-7.305l3.7-2.232c1.512,2.446,2.979,4.938,4.389,7.452l-3.786,2.086ZM82.214,94.96,78.53,92.706q2.3-3.686,4.752-7.26l3.57,2.413q-2.4,3.5-4.65,7.1ZM405.439,88.3q-2.388-3.5-4.934-6.9l3.468-2.559c1.728,2.311,3.411,4.667,5.048,7.046l-3.581,2.4ZM91.821,80.959l-3.468-2.57q2.609-3.467,5.378-6.821l3.343,2.717q-2.712,3.281-5.264,6.663Zm303.465-6.234c-1.8-2.187-3.638-4.34-5.526-6.437l3.229-2.841q2.882,3.23,5.651,6.584l-3.354,2.706ZM102.634,67.859,99.4,65.006c1.933-2.153,3.934-4.261,5.958-6.313l3.093,3c-1.99,2.018-3.934,4.07-5.821,6.178Zm281.317-5.772c-1.99-2.018-4.013-4-6.083-5.93l2.967-3.123c2.126,1.973,4.2,4,6.219,6.065l-3.092,2.988ZM114.56,55.762,111.6,52.639q3.189-2.959,6.492-5.772l2.808,3.258c-2.16,1.838-4.286,3.72-6.356,5.637Zm256.975-5.276q-3.24-2.756-6.583-5.378l2.672-3.371c2.285,1.793,4.536,3.619,6.731,5.5ZM127.51,44.759l-2.672-3.371q3.428-2.672,6.992-5.175l2.5,3.495q-3.479,2.452-6.822,5.062Zm230.632-4.746c-2.319-1.646-4.662-3.236-7.049-4.791l2.365-3.585q3.65,2.367,7.2,4.893l-2.513,3.484ZM141.381,34.94l-2.354-3.6q3.65-2.351,7.413-4.543l2.183,3.7C146.179,31.929,143.757,33.406,141.381,34.94Zm202.458-4.194c-2.444-1.432-4.934-2.818-7.447-4.149l2.035-3.788c2.57,1.364,5.1,2.773,7.618,4.25l-2.206,3.686Zm-187.78-4.374-2.024-3.788c2.558-1.342,5.162-2.638,7.788-3.867l1.853,3.867q-3.854,1.809-7.606,3.788Zm172.715-3.6c-2.57-1.218-5.162-2.379-7.8-3.484l1.694-3.946c2.695,1.127,5.344,2.322,7.97,3.562ZM171.442,19.134l-1.683-3.946c2.66-1.116,5.366-2.165,8.1-3.168l1.5,4.025c-2.672.97-5.3,2.007-7.913,3.1Zm141.585-2.965q-3.991-1.471-8.084-2.773l1.33-4.081q4.178,1.336,8.266,2.841l-1.512,4.013ZM187.416,13.283,186.1,9.2c2.763-.879,5.56-1.691,8.368-2.446l1.126,4.137Q191.464,11.992,187.416,13.283Zm109.375-2.3c-2.74-.733-5.5-1.42-8.288-2.041l.955-4.183q4.264.947,8.47,2.086ZM203.88,8.864l-.944-4.183q4.247-.947,8.55-1.7l.75,4.216q-4.212.744-8.357,1.657Zm76.267-1.6c-2.8-.5-5.594-.924-8.425-1.308l.568-4.25q4.332.575,8.618,1.33l-.762,4.216ZM220.672,5.91,220.1,1.66q4.315-.558,8.675-.936L229.154,5Q224.89,5.369,220.672,5.91Zm42.568-.891c-2.82-.248-5.651-.44-8.516-.564l.193-4.284q4.383.2,8.7.575l-.375,4.273Zm-25.57-.575L237.488.16c2.82-.124,5.673-.18,8.538-.18l.182,4.284C243.23,4.264,240.444,4.32,237.67,4.444Z" transform="translate(-42.652 0.02)" fill="#6d6e73"/>
      <path id="Path_5440" data-name="Path 5440" d="M108.4,303.431c-1.071-.948-2.142-1.9-3.191-2.867l2.878-3.124c1.026.948,2.064,1.885,3.113,2.8l-2.8,3.18Z" transform="translate(-36.196 38.473)" fill="#6d6e73"/>
      <path id="Path_5441" data-name="Path 5441" d="M56.057,209.455c1.294-6.292,3.938-14.247,7.229-19.435l-9.416,5.132L43.35,193.066c4.686,3.972,9.583,10.777,12.707,16.4Z" transform="translate(-43.35 24.342)" fill="#6d6e73"/>
      <path id="Path_5442" data-name="Path 5442" d="M104.626,282.04l5.255,19.981-20.07-4.9Z" transform="translate(-37.977 36.692)" fill="#6d6e73"/>
    </g>
  </g>
</svg>
