<svg width="400" height="390" viewBox="0 0 400 390" fill="none" xmlns="http://www.w3.org/2000/svg">
<path d="M8.4449 221.392C8.2549 219.986 8.0879 218.569 7.9209 217.153L12.1379 216.662C12.2939 218.057 12.4729 219.451 12.6509 220.835L8.4449 221.393V221.392Z" fill="#6D6E73"/>
<path d="M72.2042 341.904C71.1332 340.956 70.0622 340.004 69.0132 339.037L71.8912 335.913C72.9172 336.861 73.9552 337.798 75.0042 338.713L72.2042 341.893V341.904Z" fill="#6D6E73"/>
<path fill-rule="evenodd" clip-rule="evenodd" d="M201.991 366.774C153.718 365.974 112.123 349.036 77.8809 315.617C52.1299 290.49 35.8809 259.891 29.8519 224.69C20.5819 170.553 34.5549 122.433 71.2829 81.0414C97.7149 51.2534 131.207 32.9684 170.571 25.8074C185.389 23.2708 200.462 22.5575 215.453 23.6834C250.868 25.9564 282.102 37.8344 310.269 58.4834C319.317 65.1304 327.181 73.0574 335.033 80.9954C337.321 83.3024 336.717 84.6614 334.673 86.5574C330.208 90.5233 325.955 94.7211 321.931 99.1334C318.202 103.393 315.798 103.782 311.582 99.2134C291.255 77.1354 266.382 62.0934 236.663 55.7204C187.495 45.1664 143.496 55.7544 105.444 88.4204C81.1099 109.31 66.0799 135.637 59.6099 166.749C49.9219 213.383 62.9429 253.895 93.7149 289.653C110.58 309.253 132.266 322.147 156.415 330.725C175.052 337.404 194.948 339.827 214.643 337.818C252.149 333.946 284.556 319.132 310.516 291.698C315.916 285.987 316.022 286.067 321.69 291.641C325.813 295.684 329.867 299.807 334.095 303.741C336.295 305.774 336.195 307.282 334.153 309.441C307.435 337.603 275.435 356.323 236.57 363.393C225.106 365.483 213.699 366.979 201.979 366.774H201.991Z" fill="#325A9C"/>
<path fill-rule="evenodd" clip-rule="evenodd" d="M202.417 319.88C164.37 319.371 133.069 304.086 107.782 275.475C105.606 273.006 105.851 271.604 108.051 269.408C122.608 254.855 137.07 240.21 151.439 225.474C153.688 223.166 155.13 223.017 157.354 225.437C161.974 230.425 166.749 235.256 171.678 239.929C174.44 242.547 174.33 244.371 171.629 247.001C164.271 254.172 157.229 261.701 149.849 268.875C147.136 271.505 147.478 272.684 150.509 274.706C165.582 284.851 183.262 290.431 201.428 290.774C219.594 291.117 237.473 286.21 252.918 276.641C259.163 272.82 259.139 272.571 253.981 267.361C206.156 219.122 158.332 170.891 110.507 122.669C104.457 116.569 104.543 116.627 110.336 110.225C129.904 88.5499 153.798 74.3679 182.446 70.1379C227.008 63.5749 265.263 76.8499 296.49 110.238C300.352 114.382 300.426 116.987 296.123 121.156C282.08 134.742 268.423 148.762 254.849 162.832C251.867 165.932 250.058 166.951 246.831 163.08C242.649 158.257 238.172 153.699 233.424 149.431C230.894 147.074 230.808 145.597 233.363 143.116C241.185 135.523 248.641 127.545 256.475 119.952C259.152 117.359 259.641 115.994 256.133 113.686C224.307 92.7299 183.803 91.9239 150.987 113.301C146.294 116.353 147.174 118.115 150.474 121.452C198.299 169.703 246.062 218.013 293.765 266.38C300.842 273.539 300.854 273.58 293.865 280.834C273.965 301.492 250.037 314.222 221.865 318.634C219.873 318.944 217.905 319.726 215.913 319.813C211.428 319.987 206.93 319.875 202.432 319.875L202.417 319.88Z" fill="#DE5926"/>
<path d="M201.658 390C198.736 389.977 195.829 389.891 192.938 389.741L193.165 385.457C195.985 385.604 198.838 385.694 201.692 385.716L201.658 390ZM210.39 389.876L210.242 385.592C213.096 385.491 215.934 385.329 218.758 385.107L219.099 389.38C216.223 389.605 213.312 389.775 210.399 389.865L210.39 389.876ZM184.24 389.098C181.329 388.816 178.441 388.474 175.576 388.072L176.176 383.833C178.984 384.228 181.804 384.554 184.646 384.833L184.24 389.098ZM227.763 388.512L227.24 384.262C230.082 383.913 232.894 383.503 235.676 383.033L236.404 387.261C233.55 387.735 230.674 388.161 227.763 388.512ZM166.97 386.674C164.105 386.144 161.251 385.547 158.432 384.893L159.41 380.722C162.172 381.365 164.958 381.943 167.767 382.458L166.967 386.674H166.97ZM244.97 385.626L244.06 381.432C246.846 380.832 249.62 380.181 252.36 379.47L253.451 383.607C250.643 384.34 247.823 385.007 244.969 385.614L244.97 385.626ZM149.977 382.74C147.169 381.962 144.383 381.105 141.632 380.215L142.985 376.145C145.68 377.024 148.408 377.845 151.148 378.614L149.977 382.74ZM261.831 381.24L260.546 377.148C263.274 376.314 265.969 375.416 268.63 374.454L270.097 378.479C267.368 379.46 264.609 380.377 261.82 381.23L261.831 381.24ZM133.406 377.32C130.688 376.294 127.994 375.208 125.322 374.062L127.039 370.128C129.653 371.244 132.291 372.307 134.952 373.318L133.417 377.318L133.406 377.32ZM278.22 375.37L276.571 371.402C279.197 370.331 281.797 369.203 284.371 368.02L286.19 371.909C283.564 373.115 280.903 374.276 278.22 375.37ZM117.386 370.455C114.759 369.192 112.174 367.873 109.632 366.498L111.69 362.733C114.19 364.075 116.715 365.371 119.285 366.6L117.398 370.456L117.386 370.455ZM294.001 368.099L292.011 364.289C294.535 362.989 297.025 361.628 299.481 360.23L301.641 363.939C299.129 365.38 296.582 366.765 294.001 368.095V368.099ZM102.06 362.199C99.5698 360.711 97.1141 359.17 94.6928 357.577L97.0808 354.003C99.4568 355.559 101.859 357.07 104.289 358.535L102.06 362.199ZM309.077 359.448L306.758 355.84C309.158 354.318 311.522 352.751 313.83 351.14L316.32 354.646C313.944 356.303 311.53 357.908 309.078 359.46L309.077 359.448ZM87.5298 352.627C85.1765 350.925 82.8648 349.174 80.5948 347.374L83.3008 344.026C85.5181 345.785 87.7768 347.498 90.0768 349.167L87.5298 352.627ZM323.33 349.504L320.692 346.111C322.943 344.386 325.156 342.616 327.332 340.801L330.118 344.07C327.904 345.931 325.643 347.742 323.335 349.505L323.33 349.504ZM336.655 338.354L333.722 335.209C335.814 333.292 337.861 331.342 339.862 329.335L342.92 332.356C340.873 334.397 338.781 336.4 336.644 338.365L336.655 338.354ZM348.934 326.077L345.739 323.191C347.649 321.106 349.513 318.975 351.333 316.799L354.653 319.539C352.786 321.76 350.876 323.935 348.923 326.066L348.934 326.077ZM360.088 312.777L356.643 310.184C358.36 307.929 360.031 305.652 361.657 303.33L365.204 305.765C363.544 308.144 361.838 310.481 360.088 312.777ZM370.014 298.538L366.353 296.261C367.865 293.871 369.324 291.447 370.73 288.989L374.493 291.108C373.065 293.62 371.564 296.102 370.018 298.537L370.014 298.538ZM378.632 283.476L374.778 281.526C376.078 279.012 377.302 276.475 378.484 273.894L382.418 275.664C381.217 278.301 379.948 280.905 378.636 283.476H378.632ZM385.863 267.704L381.863 266.104C382.92 263.489 383.924 260.843 384.876 258.167L388.958 259.587C387.991 262.326 386.964 265.032 385.877 267.704H385.863ZM391.65 251.335L387.511 250.095C388.329 247.4 389.087 244.683 389.785 241.944L393.969 242.992C393.253 245.799 392.476 248.576 391.638 251.323L391.65 251.335ZM395.936 234.571L391.707 233.703C392.275 230.952 392.783 228.179 393.231 225.383L397.506 226.059C397.04 228.911 396.517 231.752 395.937 234.559L395.936 234.571ZM398.687 217.503L394.387 217.003C394.717 214.218 394.978 211.411 395.171 208.582L399.48 208.882C399.275 211.768 399.006 214.639 398.673 217.495L398.687 217.503ZM7.15379 208.503C6.96046 205.636 6.82713 202.758 6.75379 199.867L11.0738 199.767C11.1538 202.608 11.2738 205.415 11.4738 208.222L7.16479 208.515L7.15379 208.503ZM399.927 200.251L395.607 200.138C395.652 198.438 395.675 196.722 395.675 195.008C395.675 193.892 395.675 192.787 395.641 191.682L399.961 191.603C399.983 192.742 399.995 193.88 399.995 195.019C399.995 196.766 399.972 198.514 399.927 200.261V200.251ZM11.0578 191.302L6.73779 191.223C6.79446 188.326 6.9158 185.447 7.1018 182.587L11.4108 182.858C11.2288 185.654 11.1111 188.469 11.0578 191.302ZM395.315 183.22C395.145 180.402 394.906 177.583 394.615 174.799L398.915 174.348C399.221 177.2 399.46 180.075 399.631 182.972L395.322 183.231L395.315 183.22ZM12.1268 174.426L7.82679 173.975C8.14479 171.1 8.52013 168.241 8.95279 165.396L13.2278 166.039C12.8068 168.812 12.4278 171.608 12.1368 174.427L12.1268 174.426ZM393.519 166.41C393.098 163.61 392.609 160.83 392.064 158.079L396.305 157.256C396.862 160.075 397.358 162.916 397.794 165.779L393.519 166.422V166.41ZM14.6968 157.71L10.4558 156.876C11.0238 154.035 11.6498 151.228 12.3428 148.432L16.5428 149.458C15.8688 152.184 15.2535 154.934 14.6968 157.707V157.71ZM390.233 149.82C389.562 147.081 388.823 144.352 388.039 141.647L392.189 140.452C392.996 143.214 393.746 145.999 394.44 148.806L390.233 149.806V149.82ZM18.7558 141.292L14.6168 140.086C15.4358 137.313 16.3108 134.562 17.2658 131.845L21.3478 133.245C20.4271 135.906 19.5668 138.593 18.7668 141.306L18.7558 141.292ZM385.47 133.581C384.56 130.909 383.57 128.26 382.548 125.633L386.573 124.077C387.63 126.76 388.62 129.466 389.573 132.194L385.48 133.581H385.47ZM24.2928 125.261L20.2678 123.694C21.3345 120.999 22.4638 118.335 23.6558 115.701L27.6008 117.448C26.4408 120.019 25.3408 122.623 24.3008 125.261H24.2928ZM379.273 117.843C378.113 115.262 376.904 112.714 375.646 110.199L379.523 108.294C380.807 110.865 382.043 113.469 383.23 116.107L379.273 117.854V117.843ZM31.2388 109.783L27.3728 107.866C28.6798 105.284 30.0448 102.725 31.4658 100.211L35.2408 102.297C33.8648 104.755 32.5238 107.257 31.2498 109.783H31.2388ZM371.689 102.726C370.313 100.257 368.881 97.833 367.389 95.421L371.089 93.189C372.601 95.635 374.068 98.127 375.478 100.641L371.692 102.727L371.689 102.726ZM39.5618 94.98L35.8778 92.726C37.4111 90.2687 38.9951 87.8487 40.6298 85.466L44.1998 87.879C42.5998 90.2123 41.0498 92.579 39.5498 94.979L39.5618 94.98ZM362.787 88.32C361.195 85.9867 359.55 83.6867 357.853 81.42L361.321 78.861C363.049 81.172 364.732 83.528 366.369 85.907L362.788 88.307L362.787 88.32ZM49.1688 80.979L45.7008 78.409C47.4401 76.0977 49.2328 73.824 51.0788 71.588L54.4218 74.305C52.6138 76.4923 50.8591 78.7133 49.1578 80.968L49.1688 80.979ZM352.634 74.745C350.834 72.558 348.996 70.405 347.108 68.308L350.337 65.467C352.258 67.6203 354.142 69.815 355.988 72.051L352.634 74.757V74.745ZM59.9818 67.879L56.7478 65.026C58.6808 62.873 60.6818 60.765 62.7058 58.713L65.7988 61.713C63.8088 63.731 61.8648 65.783 59.9778 67.891L59.9818 67.879ZM341.299 62.107C339.309 60.089 337.286 58.107 335.216 56.177L338.183 53.054C340.309 55.027 342.383 57.054 344.402 59.119L341.31 62.107H341.299ZM71.9078 55.782L68.9478 52.659C71.0738 50.6863 73.2378 48.7623 75.4398 46.887L78.2478 50.145C76.0878 51.983 73.9618 53.865 71.8918 55.782H71.9078ZM328.883 50.506C326.723 48.6687 324.528 46.876 322.3 45.128L324.972 41.757C327.257 43.55 329.508 45.376 331.703 47.257L328.883 50.506ZM84.8578 44.779L82.1858 41.408C84.4711 39.6267 86.8018 37.9017 89.1778 36.233L91.6778 39.728C89.3585 41.3627 87.0845 43.05 84.8558 44.79L84.8578 44.779ZM315.49 40.033C313.171 38.387 310.828 36.797 308.441 35.242L310.806 31.657C313.239 33.235 315.639 34.866 318.006 36.55L315.493 40.034L315.49 40.033ZM98.7288 34.96L96.3748 31.36C98.8081 29.7927 101.279 28.2783 103.788 26.817L105.971 30.517C103.527 31.949 101.105 33.426 98.7288 34.96ZM301.187 30.766C298.743 29.334 296.253 27.948 293.74 26.617L295.775 22.829C298.345 24.193 300.875 25.602 303.393 27.079L301.187 30.766ZM113.407 26.392L111.383 22.604C113.941 21.262 116.545 19.966 119.171 18.737L121.024 22.604C118.454 23.81 115.919 25.0727 113.418 26.392H113.407ZM286.122 22.792C283.552 21.574 280.96 20.413 278.322 19.308L280.016 15.362C282.711 16.489 285.36 17.684 287.986 18.924L286.122 22.792ZM128.79 19.154L127.107 15.208C129.767 14.092 132.473 13.043 135.207 12.04L136.707 16.065C134.035 17.035 131.407 18.072 128.794 19.165L128.79 19.154ZM270.375 16.189C267.714 15.2083 265.019 14.284 262.291 13.416L263.621 9.335C266.406 10.2257 269.161 11.1727 271.887 12.176L270.375 16.189ZM144.764 13.303L143.448 9.22C146.211 8.341 149.008 7.529 151.816 6.774L152.942 10.911C150.188 11.645 147.462 12.4423 144.764 13.303ZM254.139 11.003C251.399 10.27 248.639 9.583 245.851 8.962L246.806 4.779C249.648 5.41033 252.472 6.10567 255.276 6.865L254.139 11.003ZM161.228 8.884L160.284 4.701C163.115 4.06967 165.965 3.503 168.834 3.001L169.584 7.217C166.776 7.713 163.99 8.26533 161.227 8.874L161.228 8.884ZM237.495 7.284C234.695 6.784 231.901 6.36 229.07 5.976L229.638 1.726C232.526 2.10933 235.398 2.55267 238.256 3.056L237.494 7.272L237.495 7.284ZM178.02 5.93L177.448 1.68C180.324 1.308 183.216 0.996 186.123 0.744L186.502 5.02C183.659 5.266 180.832 5.56933 178.02 5.93ZM220.588 5.039C217.768 4.791 214.937 4.599 212.072 4.475L212.265 0.191C215.187 0.324333 218.087 0.516 220.965 0.766L220.59 5.039H220.588ZM195.018 4.464L194.836 0.18C197.656 0.056 200.509 0 203.374 0L203.556 4.284C200.578 4.284 197.792 4.34 195.018 4.464Z" fill="#6D6E73"/>
<path d="M12.707 233.797C14.001 227.505 16.645 219.55 19.936 214.362L10.52 219.494L0 217.408C4.686 221.38 9.583 228.185 12.707 233.808V233.797Z" fill="#6D6E73"/>
<path d="M66.649 318.732L71.904 338.713L51.834 333.813L66.649 318.732Z" fill="#6D6E73"/>
</svg>
